PathFileType	4	(X/Y/Z)	/Users/itak/Documents/Research/Walk-IL/dataset/trc/00352_00011.trc
DataRate	CameraRate	NumFrames	NumMarkers	Units	OrigDataRate	OrigDataStartFrame	OrigNumFrames
100.000000	100.000000	4	55	mm	100.000000	347	695
Frame#	Time	RPSI			LPSI			STRN			T10			C7			CLAV			RBAK			LBAK			LSHO			LUPA			LAEL			LAOL			LWTS			LWPS			LFRA			LIFD			LHPS			LHTS			RSHO			RUPA			RAEL			RAOL			RWTS			RWPS			RFRA			RIFD			RHTS			RHPS			RBHD			LFHD			RFHD			LBHD			LHIP			RASI			LASI			LKNE			LTHI			LANK			LTIP			LTOE			LMT1			LMT5			LHEE			RKNE			RTHI			RANK			RTIP			RTOE			RMT1			RMT5			RHEE			L3			RHIP			*53			*54			
		X1	Y1	Z1	X2	Y2	Z2	X3	Y3	Z3	X4	Y4	Z4	X5	Y5	Z5	X6	Y6	Z6	X7	Y7	Z7	X8	Y8	Z8	X9	Y9	Z9	X10	Y10	Z10	X11	Y11	Z11	X12	Y12	Z12	X13	Y13	Z13	X14	Y14	Z14	X15	Y15	Z15	X16	Y16	Z16	X17	Y17	Z17	X18	Y18	Z18	X19	Y19	Z19	X20	Y20	Z20	X21	Y21	Z21	X22	Y22	Z22	X23	Y23	Z23	X24	Y24	Z24	X25	Y25	Z25	X26	Y26	Z26	X27	Y27	Z27	X28	Y28	Z28	X29	Y29	Z29	X30	Y30	Z30	X31	Y31	Z31	X32	Y32	Z32	X33	Y33	Z33	X34	Y34	Z34	X35	Y35	Z35	X36	Y36	Z36	X37	Y37	Z37	X38	Y38	Z38	X39	Y39	Z39	X40	Y40	Z40	X41	Y41	Z41	X42	Y42	Z42	X43	Y43	Z43	X44	Y44	Z44	X45	Y45	Z45	X46	Y46	Z46	X47	Y47	Z47	X48	Y48	Z48	X49	Y49	Z49	X50	Y50	Z50	X51	Y51	Z51	X52	Y52	Z52	X53	Y53	Z53	X54	Y54	Z54	X55	Y55	Z55	

348	3.47	-180.4089202880859	942.3632202148438	-322.321044921875	-233.5867767333984	956.0337524414062	-441.4272766113281	1.329916477203369	1187.24365234375	-481.8671569824219	-217.0123443603516	1125.386840820312	-364.6339111328125	-177.9531097412109	1371.258056640625	-405.3192138671875	-37.40652847290039	1313.758666992188	-467.9900512695312	-194.2984619140625	1235.193359375	-319.8835754394531	-235.0446472167969	1334.123413085938	-488.0287780761719	-185.5873413085938	1347.854370117188	-576.8206787109375	-247.1954498291016	1231.927124023438	-620.058349609375	-269.08251953125	1028.921752929688	-629.4212646484375	-282.2725219726562	1021.177978515625	-545.8147583007812	-206.9340667724609	772.989990234375	-642.5787353515625	-274.5193786621094	772.4121704101562	-660.0748291015625	-278.1542053222656	924.3949584960938	-638.5987548828125	-223.8513946533203	615.6454467773438	-625.9638061523438	-285.6699829101562	703.0678100585938	-650.6738891601562	-221.3267822265625	694.8221435546875	-660.1268310546875	-59.28050231933594	1362.56396484375	-283.0972900390625	-44.93367767333984	1299.697021484375	-217.7391510009766	-45.60105514526367	1034.20458984375	-176.9324188232422	-111.8051223754883	1028.670532226562	-243.4975433349609	19.58969116210938	793.12841796875	-240.58740234375	10.51574039459229	788.9490356445312	-164.206298828125	-24.10137176513672	966.0049438476562	-172.3269195556641	19.8033618927002	621.7489013671875	-207.2565765380859	42.4770622253418	690.59228515625	-221.20458984375	18.69614601135254	705.9141845703125	-158.6237182617188	-94.89194488525391	1581.419555664062	-354.3778076171875	45.58673095703125	1563.175659179688	-509.4127502441406	57.21533584594727	1558.219970703125	-408.8716430664062	-139.1678009033203	1589.09716796875	-493.16064453125	-192.8465118408203	910.9154663085938	-575.8484497070312	12.32537651062012	900.6798706054688	-333.9432373046875	-58.61199951171875	929.38623046875	-560.183349609375	-31.65095710754395	473.4051513671875	-657.3165893554688	-72.80845642089844	607.7974243164062	-641.5720825195312	-98.97981262207031	40.96670150756836	-677.539794921875	-57.5187873840332	250.1877288818359	-679.437255859375	117.2556457519531	39.61520385742188	-663.3385620117188	60.35880279541016	29.92504501342773	-605.9003295898438	21.5421028137207	35.41605377197266	-714.8485107421875	-115.0675811767578	35.72579193115234	-603.8246459960938	-88.18874359130859	413.5985107421875	-333.5704345703125	-24.16266632080078	658.9954833984375	-307.294677734375	-385.3963928222656	139.8975982666016	-210.8022308349609	-157.1487731933594	311.6929626464844	-317.6705627441406	-359.0562133789062	35.53733825683594	-359.0545959472656	-407.076171875	62.11248779296875	-350.1467590332031	-340.4986572265625	55.97243499755859	-251.2145690917969	-434.0061340332031	186.524658203125	-217.4359283447266	-204.3113861083984	1005.340698242188	-369.616943359375	-70.42881774902344	872.6583251953125	-255.3100280761719	nan	nan	nan	nan	nan	nan	
349	3.48	-175.6326141357422	943.6749877929688	-328.0641174316406	-225.4827575683594	958.2425537109375	-448.3153686523438	10.70237159729004	1188.911987304688	-484.0943603515625	-210.4367980957031	1127.1875	-372.7301635742188	-170.8232879638672	1372.998168945312	-413.1307373046875	-28.41960334777832	1315.388549804688	-471.5859069824219	-189.3667755126953	1237.308837890625	-327.6492309570312	-225.2664642333984	1335.624877929688	-497.3800964355469	-173.2026214599609	1349.479736328125	-584.6217651367188	-233.6986236572266	1233.97216796875	-630.0023193359375	-255.9549560546875	1031.056884765625	-640.162109375	-271.7723388671875	1023.330383300781	-557.0514526367188	-193.8775329589844	775.02734375	-652.1072998046875	-260.9430541992188	774.4611206054688	-671.369873046875	-265.0084838867188	926.5457763671875	-649.8184204101562	-211.5252838134766	617.5983276367188	-635.6900024414062	-272.3958435058594	705.1251831054688	-662.283935546875	-207.8443298339844	696.85205078125	-669.9959716796875	-55.6360969543457	1364.971313476562	-287.6666870117188	-43.01522064208984	1302.451049804688	-221.6268157958984	-45.99242782592773	1037.2119140625	-179.7867584228516	-109.4922561645508	1031.520629882812	-249.0326080322266	20.90772819519043	794.8662719726562	-237.1428680419922	7.456246376037598	792.0054931640625	-161.0326385498047	-25.19276809692383	969.0680541992188	-173.36279296875	17.22641372680664	623.9056396484375	-200.5075225830078	41.39362716674805	692.1362915039062	-214.4530487060547	14.50694751739502	709.1458129882812	-153.6345672607422	-88.74588775634766	1583.112670898438	-360.2767028808594	54.70190048217773	1564.64794921875	-512.1715698242188	64.37677001953125	1559.8837890625	-411.4459228515625	-130.3401947021484	1590.639770507812	-499.7060852050781	-182.3250122070312	913.2268676757812	-581.8475952148438	16.99723625183105	902.3350830078125	-335.4539794921875	-48.41457366943359	930.7034912109375	-563.31591796875	-27.00333213806152	472.8655395507812	-659.8662109375	-65.81975555419922	608.7304077148438	-645.9923095703125	-98.86963653564453	41.08900451660156	-677.5381469726562	-55.2922477722168	249.7638092041016	-680.721923828125	117.2085494995117	39.45512390136719	-663.1740112304688	60.40463256835938	29.64307403564453	-605.7515869140625	21.63180923461914	35.40454864501953	-714.7570190429688	-114.9165954589844	35.89067840576172	-603.8161010742188	-72.47541809082031	414.5088195800781	-339.9767456054688	-15.74508190155029	660.2911376953125	-310.8589172363281	-377.7737121582031	149.5720672607422	-219.401123046875	-142.8173828125	314.3997192382812	-323.9068603515625	-354.7644653320312	34.12829208374023	-361.27685546875	-400.3430786132812	65.96540832519531	-355.2802124023438	-336.9982299804688	61.16011428833008	-254.4255676269531	-424.0917663574219	197.9330139160156	-229.2279815673828	-198.1369171142578	1007.253234863281	-376.5525512695312	-67.17855834960938	873.6719360351562	-258.8568420410156	nan	nan	nan	nan	nan	nan	
350	3.49	-171.1496734619141	944.8855590820312	-333.7354125976562	-217.5185699462891	960.3295288085938	-455.1138610839844	20.04286956787109	1190.451782226562	-485.739501953125	-203.9312591552734	1129.006958007812	-380.795166015625	-163.5771179199219	1374.743896484375	-420.8326110839844	-19.36137390136719	1316.910888671875	-474.7469177246094	-184.4717254638672	1239.42041015625	-335.3884887695312	-215.1926116943359	1337.074584960938	-506.6443176269531	-160.3705444335938	1350.996337890625	-592.17236328125	-219.5841064453125	1235.927368164062	-639.8400268554688	-242.3846740722656	1033.129028320312	-650.8960571289062	-261.062744140625	1025.434936523438	-568.44091796875	-180.5768890380859	776.9806518554688	-661.4799194335938	-246.9952697753906	776.4794921875	-682.7279663085938	-251.4859466552734	928.6326904296875	-661.0770874023438	-199.0757446289062	619.479248046875	-645.3509521484375	-258.8285217285156	707.1549072265625	-674.0040283203125	-194.0755157470703	698.8532104492188	-679.748046875	-52.14369583129883	1367.331665039062	-292.0211181640625	-41.41607666015625	1305.206787109375	-225.3149261474609	-46.61638641357422	1040.231079101562	-182.2501525878906	-107.3628387451172	1034.2763671875	-254.0032043457031	22.2490234375	797.0372314453125	-233.7835998535156	4.469238758087158	795.161376953125	-158.1820678710938	-26.45590019226074	972.1622314453125	-174.1275939941406	14.94989967346191	626.4118041992188	-194.8432769775391	40.44348526000977	694.1220092773438	-208.3448181152344	10.47733306884766	712.4539794921875	-149.382568359375	-82.58108520507812	1584.791259765625	-366.0208435058594	63.75743103027344	1566.152954101562	-514.683349609375	71.48397064208984	1561.642211914062	-413.8288269042969	-121.4977493286133	1592.0400390625	-506.0564575195312	-171.9980316162109	915.2279663085938	-587.6363525390625	21.41458511352539	903.9926147460938	-336.79931640625	-38.52295684814453	931.7527465820312	-566.204345703125	-23.08656120300293	472.0153503417969	-661.9031982421875	-59.85457229614258	609.0094604492188	-649.9760131835938	-98.77579498291016	41.19993209838867	-677.4883422851562	-53.43872451782227	249.3689727783203	-681.8361206054688	117.1788024902344	39.39279556274414	-662.9364013671875	60.42525100708008	29.40471839904785	-605.546142578125	21.73805809020996	35.4122428894043	-714.5999755859375	-114.7986907958984	36.03255081176758	-603.7665405273438	-56.58353042602539	415.9254760742188	-345.9846801757812	-7.421030044555664	661.7785034179688	-314.0502319335938	-369.3680114746094	159.5808868408203	-228.7045593261719	-128.0902404785156	317.4504089355469	-330.1308288574219	-348.768310546875	32.79807281494141	-363.7292785644531	-391.9700622558594	70.20287322998047	-361.0847778320312	-332.6480712890625	67.34146118164062	-258.1606140136719	-413.45263671875	209.3191528320312	-241.9037780761719	-192.2385406494141	1009.186401367188	-383.4359436035156	-64.21932220458984	874.6858520507812	-262.4417114257812	nan	nan	nan	nan	nan	nan	
351	3.5	-166.9302978515625	945.9660034179688	-339.3608703613281	-209.7401580810547	962.2435913085938	-461.831298828125	29.28937339782715	1191.836791992188	-486.7927856445312	-197.5118713378906	1130.843139648438	-388.8395385742188	-156.2170715332031	1376.496459960938	-428.4000549316406	-10.26800537109375	1318.30322265625	-477.4646606445312	-179.6100921630859	1241.516357421875	-343.0952453613281	-204.8353271484375	1338.479370117188	-515.77880859375	-147.1180725097656	1352.388671875	-599.4276123046875	-204.8512268066406	1237.753662109375	-649.5037231445312	-228.3656616210938	1035.109741210938	-661.5885009765625	-250.1334991455078	1027.452270507812	-579.9837646484375	-167.054443359375	778.8277587890625	-670.6809692382812	-232.6853942871094	778.4376831054688	-694.1228637695312	-237.5774383544922	930.62939453125	-672.34716796875	-186.4801483154297	621.2672729492188	-654.9840087890625	-244.9510345458984	709.1285400390625	-685.82763671875	-180.0100860595703	700.824951171875	-689.3849487304688	-48.77567291259766	1369.602905273438	-296.1686706542969	-40.10770416259766	1307.917114257812	-228.8342132568359	-47.4694709777832	1043.226440429688	-184.3333892822266	-105.43310546875	1036.898681640625	-258.4181518554688	23.55548858642578	799.54931640625	-230.5383911132812	1.624672889709473	798.3182983398438	-155.6746826171875	-27.8747615814209	975.2388305664062	-174.65576171875	13.08555889129639	629.1390380859375	-190.3045654296875	39.65807723999023	696.427490234375	-202.9371032714844	6.704973220825195	715.7042236328125	-145.8772277832031	-76.39596557617188	1586.440795898438	-371.5784301757812	72.75874328613281	1567.678955078125	-516.955078125	78.54547119140625	1563.482666015625	-416.0203552246094	-112.6402206420898	1593.282958984375	-512.1922607421875	-161.8550415039062	916.8807373046875	-593.2276611328125	25.61553001403809	905.6588745117188	-338.01123046875	-28.90963935852051	932.5560302734375	-568.8933715820312	-19.71553611755371	470.9308166503906	-663.531494140625	-54.76110458374023	608.6873779296875	-653.4546508789062	-98.69779968261719	41.30256652832031	-677.415283203125	-51.8568229675293	249.0105743408203	-682.8240356445312	117.1717224121094	39.3785514831543	-662.6815795898438	60.43490600585938	29.20064735412598	-605.3263549804688	21.84381866455078	35.42505645751953	-714.4207763671875	-114.6977920532227	36.1621208190918	-603.6956787109375	-40.65025329589844	417.8904113769531	-351.55322265625	0.7850317358970642	663.4899291992188	-316.8575134277344	-360.2886657714844	169.7227478027344	-238.6944122314453	-113.075080871582	320.8460388183594	-336.2779235839844	-340.7366333007812	31.84609413146973	-366.4006958007812	-381.7782287597656	74.62104797363281	-367.5641784667969	-327.2931518554688	74.3427734375	-262.4945678710938	-402.2013244628906	220.4256744384766	-255.4407958984375	-186.6337280273438	1011.122985839844	-390.2882385253906	-61.5316047668457	875.7015991210938	-266.0384826660156	nan	nan	nan	nan	nan	nan	
